HIERARCHY
ROOT Hips
{
	OFFSET 0.00000 0.00000 0.00000
	CHANNELS 6 Xposition Yposition Zposition Zrotation Yrotation Xrotation 
	JOINT LHipJoint
	{
		OFFSET 0 0 0
		CHANNELS 3 Zrotation Yrotation Xrotation
		JOINT LeftHip
		{
			OFFSET 3.13874 -1.57224 1.49786
			CHANNELS 3 Zrotation Yrotation Xrotation
			JOINT LeftKnee
			{
				OFFSET 2.10955 -5.79594 0.00000
				CHANNELS 3 Zrotation Yrotation Xrotation
				JOINT LeftAnkle
				{
					OFFSET 2.41843 -6.64458 0.00000
					CHANNELS 3 Zrotation Yrotation Xrotation
					JOINT LeftToe
					{
						OFFSET 0.04713 -0.12948 1.66229
						CHANNELS 3 Zrotation Yrotation Xrotation
						End Site
						{
							OFFSET 0.00000 -0.00000 0.85167
						}
					}
				}
			}
		}
	}
	JOINT RHipJoint
	{
		OFFSET 0 0 0
		CHANNELS 3 Zrotation Yrotation Xrotation
		JOINT RightHip
		{
			OFFSET -3.13988 -1.57224 1.49786
			CHANNELS 3 Zrotation Yrotation Xrotation
			JOINT RightKnee
			{
				OFFSET -2.15006 -5.90725 0.00000
				CHANNELS 3 Zrotation Yrotation Xrotation
				JOINT RightAnkle
				{
					OFFSET -2.34496 -6.44273 0.00000
					CHANNELS 3 Zrotation Yrotation Xrotation
					JOINT RightToe
					{
						OFFSET -0.08699 -0.23900 1.55223
						CHANNELS 3 Zrotation Yrotation Xrotation
						End Site
						{
							OFFSET -0.00000 -0.00000 0.80281
						}
					}
				}
			}
		}
	}
	JOINT lowerback
	{
		OFFSET 0 0 0
		CHANNELS 3 Zrotation Yrotation Xrotation
		JOINT Chest
		{
			OFFSET 0.01292 1.96517 -0.16495
			CHANNELS 3 Zrotation Yrotation Xrotation
			JOINT Chest2
			{
				OFFSET 0.02122 1.88666 0.19706
				CHANNELS 3 Zrotation Yrotation Xrotation
				JOINT lowerneck
				{
					OFFSET 0 0 0
					CHANNELS 3 Zrotation Yrotation Xrotation
					JOINT Neck
					{
						OFFSET -0.01683 1.81591 0.07903
						CHANNELS 3 Zrotation Yrotation Xrotation
						JOINT Head
						{
							OFFSET 0.00815 1.74013 -0.47700
							CHANNELS 3 Zrotation Yrotation Xrotation
							End Site
							{
								OFFSET -0.00204 1.83225 -0.16933
							}
						}
					}
				}
				JOINT LeftCollar
				{
					OFFSET 0 0 0
					CHANNELS 3 Zrotation Yrotation Xrotation
					JOINT LeftShoulder
					{
						OFFSET 3.38482 1.41533 0.19802
CHANNELS 3 Zrotation Xrotation Yrotation
						JOINT LeftElbow
						{
OFFSET 0 -4.327120 0.000000
CHANNELS 3 Zrotation Xrotation Yrotation
							JOINT LeftWrist
							{
OFFSET 0 -3.285870 -0.000000
CHANNELS 3 Zrotation Xrotation Yrotation
								JOINT lhand
								{
									OFFSET 0 0 0
CHANNELS 3 Zrotation Xrotation Yrotation
									JOINT LFingers
									{
OFFSET 0 -0.433160 -0.000000
CHANNELS 3 Zrotation Xrotation Yrotation
										End Site
										{
OFFSET 0 -0.349220 -0.000000
										}
									}
								}
								JOINT LThumb
								{
OFFSET 0 0.000000 0.000000
CHANNELS 3 Zrotation Xrotation Yrotation
									End Site
									{
OFFSET 0 -0.354560 0.354560
									}
								}
							}
						}
					}
				}
				JOINT RightCollar
				{
					OFFSET 0 0 0
					CHANNELS 3 Zrotation Yrotation Xrotation
					JOINT RightShoulder
					{
						OFFSET -3.09725 1.62858 -0.14144
CHANNELS 3 Zrotation Xrotation Yrotation
						JOINT RightElbow
						{
OFFSET 0 -4.291040 0.000000
CHANNELS 3 Zrotation Xrotation Yrotation
							JOINT RightWrist
							{
OFFSET 0 -3.227200 -0.000000
CHANNELS 3 Zrotation Xrotation Yrotation
								JOINT rhand
								{
									OFFSET 0 0 0
CHANNELS 3 Zrotation Xrotation Yrotation
									JOINT RFingers
									{
OFFSET 0 -0.543620 -0.000000
CHANNELS 3 Zrotation Xrotation Yrotation
										End Site
										{
OFFSET 0 -0.438280 -0.000000
										}
									}
								}
								JOINT RThumb
								{
OFFSET 0 0.000000 0.000000
CHANNELS 3 Zrotation Xrotation Yrotation
									End Site
									{
OFFSET 0 -0.444970 0.444970
									}
								}
							}
						}
					}
				}
			}
		}
	}
}
MOTION
Frames: 11
Frame Time: 0.008333333333333333
34.092400 14.783000 2.946800 17.422900 -87.465700 5.129500 0.000000 0.000000 0.000000 -29.574500 -3.661300 -8.758300 11.022700 17.946200 62.855100 -1.638100 28.265800 8.721100 11.078700 -17.973400 -63.036700 0.000000 0.000000 0.000000 18.859600 25.627700 -43.178600 -4.351100 -12.613500 37.938400 -1.205300 -2.994600 -22.013900 -0.511900 4.586000 -12.731500 4.332200 0.100800 13.733700 1.689500 1.187300 -7.373800 -0.834400 0.161400 -16.100400 -1.007400 0.550000 -19.240700 -10.225700 3.656200 26.691100 -3.162700 -0.032300 12.257200 0.000000 -0.000000 0.000000 11.822100 10.785700 -56.312600 89.366800 -59.998500 59.451700 37.136600 17.374400 -20.641300 0.000000 0.000000 0.000000 -7.125000 0.000000 0.000000 9.347500 55.028300 -2.316900 0.000000 -0.000000 0.000000 -25.608200 15.248900 51.307300 -24.460200 -35.647100 -7.973200 -32.500200 1.010200 12.550800 0.000000 0.000000 0.000000 7.125000 0.000000 -0.000000 -4.869000 44.711400 -0.034800
34.006994 14.779612 2.939317 8.129793 -87.193443 14.434709 0.000000 0.000000 0.000000 -28.843379 -3.503783 -9.861551 11.470925 18.112759 64.253934 -1.626096 27.684530 7.878529 11.032584 -17.950476 -62.886520 0.000000 0.000000 0.000000 19.737586 25.702638 -42.480128 -4.400116 -12.672851 38.158680 -1.280347 -1.488070 -22.280892 -0.578465 3.230052 -8.942373 4.860956 0.192982 13.839934 1.856169 1.458229 -7.460486 -1.012890 0.227417 -16.254980 -1.137788 0.499461 -19.141608 -10.275423 3.626866 26.657086 -3.161762 -0.063048 12.222821 0.000000 0.000000 0.000000 11.851556 11.438861 -56.126176 88.403980 -59.964925 58.618696 36.903366 17.814301 -20.914788 0.000000 0.000000 0.000000 -7.125000 0.000000 0.000000 9.058401 55.289321 -2.288821 0.000000 0.000000 0.000000 -25.709425 15.017481 51.112930 -24.713701 -35.901820 -8.124696 -32.399755 1.327488 12.696483 0.000000 0.000000 0.000000 7.125000 0.000000 0.000000 -4.767105 44.865736 -0.018677
33.921587 14.776224 2.931834 -1.163314 -86.921186 23.739918 0.000000 0.000000 0.000000 -28.112258 -3.346267 -10.964801 11.919150 18.279319 65.652767 -1.614092 27.103260 7.035958 10.986469 -17.927553 -62.736340 0.000000 0.000000 0.000000 20.615573 25.777575 -41.781655 -4.449132 -12.732201 38.378959 -1.355395 0.018460 -22.547885 -0.645031 1.874105 -5.153247 5.389713 0.285165 13.946168 2.022838 1.729157 -7.547172 -1.191381 0.293434 -16.409559 -1.268177 0.448921 -19.042515 -10.325146 3.597532 26.623072 -3.160823 -0.093795 12.188441 0.000000 0.000000 0.000000 11.881012 12.092022 -55.939752 87.441160 -59.931350 57.785691 36.670131 18.254202 -21.188276 0.000000 0.000000 0.000000 -7.125000 0.000000 0.000000 8.769301 55.550341 -2.260742 0.000000 0.000000 0.000000 -25.810650 14.786063 50.918560 -24.967203 -36.156540 -8.276193 -32.299310 1.644776 12.842166 0.000000 0.000000 0.000000 7.125000 0.000000 0.000000 -4.665209 45.020072 -0.002553
33.836181 14.772836 2.924352 -10.456422 -86.648929 33.045127 0.000000 0.000000 0.000000 -27.381136 -3.188750 -12.068052 12.367375 18.445878 67.051601 -1.602087 26.521990 6.193387 10.940353 -17.904629 -62.586160 0.000000 0.000000 0.000000 21.493559 25.852513 -41.083183 -4.498148 -12.791552 38.599239 -1.430442 1.524990 -22.814877 -0.711596 0.518157 -1.364120 5.918469 0.377347 14.052402 2.189507 2.000086 -7.633858 -1.369871 0.359451 -16.564139 -1.398565 0.398382 -18.943423 -10.374869 3.568198 26.589058 -3.159885 -0.124543 12.154062 0.000000 0.000000 0.000000 11.910468 12.745183 -55.753327 86.478340 -59.897775 56.952687 36.436897 18.694104 -21.461764 0.000000 0.000000 0.000000 -7.125000 0.000000 0.000000 8.480202 55.811362 -2.232664 0.000000 0.000000 0.000000 -25.911875 14.554644 50.724190 -25.220704 -36.411260 -8.427689 -32.198865 1.962064 12.987849 0.000000 0.000000 0.000000 7.125000 0.000000 0.000000 -4.563314 45.174408 0.013570
33.750775 14.769448 2.916869 -19.749529 -86.376672 42.350335 0.000000 0.000000 0.000000 -26.650015 -3.031233 -13.171302 12.815599 18.612438 68.450434 -1.590083 25.940720 5.350816 10.894238 -17.881705 -62.435979 0.000000 0.000000 0.000000 22.371546 25.927451 -40.384711 -4.547164 -12.850902 38.819519 -1.505490 3.031520 -23.081869 -0.778161 -0.837790 2.425006 6.447226 0.469529 14.158636 2.356176 2.271015 -7.720544 -1.548362 0.425467 -16.718719 -1.528954 0.347842 -18.844331 -10.424591 3.538864 26.555045 -3.158946 -0.155291 12.119682 0.000000 0.000000 0.000000 11.939924 13.398344 -55.566903 85.515520 -59.864199 56.119683 36.203662 19.134005 -21.735252 0.000000 0.000000 0.000000 -7.125000 0.000000 0.000000 8.191102 56.072383 -2.204585 0.000000 0.000000 0.000000 -26.013100 14.323226 50.529820 -25.474205 -36.665980 -8.579185 -32.098420 2.279352 13.133533 0.000000 0.000000 0.000000 7.125000 0.000000 0.000000 -4.461419 45.328744 0.029693
33.665368 14.766060 2.909386 -29.042636 -86.104415 51.655544 0.000000 0.000000 0.000000 -25.918894 -2.873717 -14.274553 13.263824 18.778997 69.849268 -1.578079 25.359449 4.508244 10.848122 -17.858781 -62.285799 0.000000 0.000000 0.000000 23.249532 26.002389 -39.686239 -4.596180 -12.910253 39.039798 -1.580537 4.538049 -23.348862 -0.844726 -2.193738 6.214133 6.975982 0.561712 14.264869 2.522846 2.541944 -7.807230 -1.726852 0.491484 -16.873298 -1.659342 0.297303 -18.745238 -10.474314 3.509530 26.521031 -3.158008 -0.186039 12.085303 0.000000 0.000000 0.000000 11.969380 14.051506 -55.380479 84.552700 -59.830624 55.286678 35.970428 19.573906 -22.008740 0.000000 0.000000 0.000000 -7.125000 0.000000 0.000000 7.902003 56.333404 -2.176506 0.000000 0.000000 0.000000 -26.114325 14.091807 50.335449 -25.727707 -36.920700 -8.730682 -31.997975 2.596640 13.279216 0.000000 0.000000 0.000000 7.125000 0.000000 0.000000 -4.359523 45.483079 0.045817
33.579962 14.762672 2.901903 -38.335743 -85.832157 60.960753 0.000000 0.000000 0.000000 -25.187773 -2.716200 -15.377804 13.712049 18.945557 71.248101 -1.566075 24.778179 3.665673 10.802007 -17.835858 -62.135619 0.000000 0.000000 0.000000 24.127519 26.077326 -38.987766 -4.645196 -12.969604 39.260078 -1.655584 6.044579 -23.615854 -0.911292 -3.549685 10.003259 7.504739 0.653894 14.371103 2.689515 2.812872 -7.893916 -1.905343 0.557501 -17.027878 -1.789731 0.246764 -18.646146 -10.524037 3.480196 26.487017 -3.157070 -0.216786 12.050923 0.000000 0.000000 0.000000 11.998836 14.704667 -55.194055 83.589880 -59.797049 54.453674 35.737194 20.013807 -22.282228 0.000000 0.000000 0.000000 -7.125000 0.000000 0.000000 7.612903 56.594424 -2.148427 0.000000 0.000000 0.000000 -26.215550 13.860389 50.141079 -25.981208 -37.175420 -8.882178 -31.897530 2.913928 13.424899 0.000000 0.000000 0.000000 7.125000 0.000000 0.000000 -4.257628 45.637415 0.061940
33.494556 14.759284 2.894420 -47.628850 -85.559900 70.265962 0.000000 0.000000 0.000000 -24.456652 -2.558683 -16.481054 14.160274 19.112116 72.646935 -1.554071 24.196909 2.823102 10.755891 -17.812934 -61.985439 0.000000 0.000000 0.000000 25.005505 26.152264 -38.289294 -4.694212 -13.028954 39.480357 -1.730632 7.551109 -23.882846 -0.977857 -4.905633 13.792386 8.033495 0.746076 14.477337 2.856184 3.083801 -7.980602 -2.083833 0.623518 -17.182457 -1.920119 0.196224 -18.547054 -10.573760 3.450862 26.453003 -3.156131 -0.247534 12.016544 0.000000 0.000000 0.000000 12.028291 15.357828 -55.007631 82.627060 -59.763474 53.620670 35.503959 20.453708 -22.555716 0.000000 0.000000 0.000000 -7.125000 0.000000 0.000000 7.323804 56.855445 -2.120348 0.000000 0.000000 0.000000 -26.316775 13.628970 49.946709 -26.234709 -37.430140 -9.033674 -31.797084 3.231216 13.570582 0.000000 0.000000 0.000000 7.125000 0.000000 0.000000 -4.155733 45.791751 0.078064
33.409149 14.755896 2.886938 -56.921957 -85.287643 79.571171 0.000000 0.000000 0.000000 -23.725530 -2.401166 -17.584305 14.608499 19.278675 74.045768 -1.542067 23.615639 1.980531 10.709776 -17.790010 -61.835259 0.000000 0.000000 0.000000 25.883492 26.227202 -37.590822 -4.743228 -13.088305 39.700637 -1.805679 9.057639 -24.149839 -1.044422 -6.261581 17.581512 8.562251 0.838258 14.583571 3.022853 3.354730 -8.067288 -2.262324 0.689535 -17.337037 -2.050508 0.145685 -18.447961 -10.623483 3.421528 26.418989 -3.155193 -0.278282 11.982164 0.000000 0.000000 0.000000 12.057747 16.010989 -54.821206 81.664240 -59.729899 52.787665 35.270725 20.893609 -22.829204 0.000000 0.000000 0.000000 -7.125000 0.000000 0.000000 7.034704 57.116466 -2.092270 0.000000 0.000000 0.000000 -26.418000 13.397552 49.752339 -26.488211 -37.684860 -9.185171 -31.696639 3.548504 13.716265 0.000000 0.000000 0.000000 7.125000 0.000000 0.000000 -4.053837 45.946087 0.094187
33.320189 14.759335 2.881372 -60.083245 -85.193046 82.806074 0.000000 0.000000 0.000000 -23.477939 -2.389289 -18.650431 15.019958 19.370106 75.282754 -1.502282 23.022740 0.924231 10.644014 -17.755370 -61.618587 0.000000 0.000000 0.000000 26.402808 25.948010 -37.167486 -4.661662 -12.984142 39.322684 -1.785419 8.934127 -23.963395 -0.955850 -5.935383 16.660516 8.670890 0.929066 14.616671 3.083776 3.515962 -8.131839 -2.297335 0.747757 -17.427584 -2.104799 0.109883 -18.455254 -10.687536 3.401886 26.376319 -3.171916 -0.299657 11.967838 0.000000 0.000000 0.000000 12.155477 16.741922 -54.610343 81.251510 -59.707081 52.431074 35.624210 21.367807 -22.849699 0.000000 0.000000 0.000000 -7.125000 0.000000 0.000000 7.457300 57.229184 -2.250014 0.000000 0.000000 0.000000 -26.515585 13.103205 49.550707 -26.893684 -38.058514 -9.440728 -31.708583 3.354840 13.582919 0.000000 0.000000 0.000000 7.125000 0.000000 0.000000 -4.071331 45.793769 0.078270
33.230310 14.764538 2.876302 -61.658716 -85.144396 84.471072 0.000000 0.000000 0.000000 -23.355399 -2.415076 -19.706957 15.421909 19.442107 76.477882 -1.455314 22.426833 -0.187343 10.573171 -17.717701 -61.384719 0.000000 0.000000 0.000000 26.829364 25.577234 -36.815307 -4.546324 -12.837691 38.790016 -1.740510 8.389052 -23.659683 -0.827155 -5.174148 14.521384 8.670878 1.019518 14.630856 3.117351 3.648824 -8.190665 -2.295238 0.803963 -17.501571 -2.139410 0.077892 -18.490060 -10.755296 3.384751 26.331410 -3.193207 -0.318608 11.958698 0.000000 0.000000 0.000000 12.270863 17.492969 -54.393159 80.981044 -59.687046 52.197694 36.129434 21.850874 -22.804766 0.000000 0.000000 0.000000 -7.125000 0.000000 0.000000 8.063956 57.303549 -2.455815 0.000000 0.000000 0.000000 -26.612227 12.792583 49.347196 -27.338460 -38.462927 -9.723198 -31.749592 3.029033 13.377410 0.000000 0.000000 0.000000 7.125000 0.000000 0.000000 -4.119701 45.562143 0.054067
